<?xml version="1.0" encoding="UTF-8" standalone="no"?>
<!-- Created with Inkscape (http://www.inkscape.org/) -->

<svg
   xmlns:dc="http://purl.org/dc/elements/1.1/"
   xmlns:cc="http://creativecommons.org/ns#"
   xmlns:rdf="http://www.w3.org/1999/02/22-rdf-syntax-ns#"
   xmlns:svg="http://www.w3.org/2000/svg"
   xmlns="http://www.w3.org/2000/svg"
   xmlns:sodipodi="http://sodipodi.sourceforge.net/DTD/sodipodi-0.dtd"
   xmlns:inkscape="http://www.inkscape.org/namespaces/inkscape"
   width="225.02812mm"
   height="70.209747mm"
   viewBox="0 0 225.02812 70.209747"
   version="1.1"
   id="svg9954"
   inkscape:version="0.92.2 (5c3e80d, 2017-08-06)"
   sodipodi:docname="Knockoff Skynet Title.svg">
  <defs
     id="defs9948" />
  <sodipodi:namedview
     id="base"
     pagecolor="#ffffff"
     bordercolor="#666666"
     borderopacity="1.0"
     inkscape:pageopacity="0.0"
     inkscape:pageshadow="2"
     inkscape:zoom="0.35"
     inkscape:cx="788.10713"
     inkscape:cy="-433.03444"
     inkscape:document-units="mm"
     inkscape:current-layer="layer1"
     showgrid="false"
     fit-margin-top="0"
     fit-margin-left="0"
     fit-margin-right="0"
     fit-margin-bottom="0"
     inkscape:window-width="1920"
     inkscape:window-height="1051"
     inkscape:window-x="-9"
     inkscape:window-y="-9"
     inkscape:window-maximized="1" />
  <metadata
     id="metadata9951">
    <rdf:RDF>
      <cc:Work
         rdf:about="">
        <dc:format>image/svg+xml</dc:format>
        <dc:type
           rdf:resource="http://purl.org/dc/dcmitype/StillImage" />
        <dc:title></dc:title>
      </cc:Work>
    </rdf:RDF>
  </metadata>
  <g
     inkscape:label="Layer 1"
     inkscape:groupmode="layer"
     id="layer1"
     transform="translate(236.49025,35.950113)">
    <path
       style="display:inline;fill:none;stroke:#000000;stroke-width:0.4630208;stroke-linecap:butt;stroke-linejoin:miter;stroke-miterlimit:4;stroke-dasharray:none;stroke-opacity:1"
       d="m -236.25874,-35.718603 v 34.7265702 h 6.94531 V -12.567573 l 13.89063,11.5755402 h 4.63021 v -2.31511 l -18.52084,-16.2057402 18.52084,-13.89062 v -2.3151 h -4.63021 l -13.89063,9.26041 v -9.26041 h -6.94531"
       id="path80218"
       inkscape:connector-curvature="0" />
    <path
       style="display:inline;fill:none;stroke:#000000;stroke-width:0.4630208;stroke-linecap:butt;stroke-linejoin:miter;stroke-miterlimit:4;stroke-dasharray:none;stroke-opacity:1"
       d="m -208.4775,-35.718603 v 34.7265702 h 6.94531 V -21.827974 l 11.57554,20.8359412 h 6.94531 V -35.718603 h -6.94531 v 20.83594 l -11.57554,-20.83594 z"
       id="path80235"
       inkscape:connector-curvature="0" />
    <path
       style="display:inline;fill:none;stroke:#000000;stroke-width:0.4630208;stroke-linecap:butt;stroke-linejoin:miter;stroke-miterlimit:4;stroke-dasharray:none;stroke-opacity:1"
       d="M -180.69625,-35.718603 V -0.9920328 H -152.915 V -35.718603 h -27.78125"
       id="path80237"
       inkscape:connector-curvature="0" />
    <path
       style="display:inline;fill:none;stroke:#000000;stroke-width:0.4630208;stroke-linecap:butt;stroke-linejoin:miter;stroke-miterlimit:4;stroke-dasharray:none;stroke-opacity:1"
       d="m -150.59989,-35.718603 v 34.7265702 h 25.46614 v -6.945321 h -18.52082 V -28.773283 h 18.52082 v -6.94532 h -25.46614"
       id="path80239"
       inkscape:connector-curvature="0" />
    <path
       style="display:inline;fill:none;stroke:#000000;stroke-width:0.4630208;stroke-linecap:butt;stroke-linejoin:miter;stroke-miterlimit:4;stroke-dasharray:none;stroke-opacity:1"
       d="m -122.81864,-35.718603 v 34.7265702 h 6.94532 v -9.2604302 l 13.89062,9.2604302 h 4.630199 v -6.945321 l -13.890619,-9.2604192 v -2.31509 l 13.890619,-9.26042 v -6.94532 h -4.630199 l -13.89062,11.575519 v -11.575519 h -6.94532"
       id="path80243"
       inkscape:connector-curvature="0" />
    <path
       style="display:inline;fill:none;stroke:#000000;stroke-width:0.4630208;stroke-linecap:butt;stroke-linejoin:miter;stroke-miterlimit:4;stroke-dasharray:none;stroke-opacity:1"
       d="m -95.037391,-35.718603 v 34.7265702 h 27.78125 V -35.718603 Z"
       id="path80245"
       inkscape:connector-curvature="0" />
    <path
       style="display:inline;fill:none;stroke:#000000;stroke-width:0.4630208;stroke-linecap:butt;stroke-linejoin:miter;stroke-miterlimit:4;stroke-dasharray:none;stroke-opacity:1"
       d="m -64.941041,-35.718603 v 34.7265702 h 6.94531 V -14.882663 h 18.52084 v -6.945311 h -18.52084 v -4.630199 h 18.52084 v -9.26043 z"
       id="path80247"
       inkscape:connector-curvature="0" />
    <path
       style="display:inline;fill:none;stroke:#000000;stroke-width:0.4630208;stroke-linecap:butt;stroke-linejoin:miter;stroke-miterlimit:4;stroke-dasharray:none;stroke-opacity:1"
       d="m -37.159791,-35.718603 h 25.46615 v 6.94532 h -16.20573 v 4.630199 l 2.31511,2.31511 h 13.89062 v 2.315111 l -4.63022,4.6302 h -13.89062 v 13.8906302 h -6.94531 V -35.718603"
       id="path80249"
       inkscape:connector-curvature="0" />
    <path
       style="display:inline;fill:none;stroke:#000000;stroke-width:0.4630208;stroke-linecap:butt;stroke-linejoin:miter;stroke-miterlimit:4;stroke-dasharray:none;stroke-opacity:1"
       d="m -208.39686,34.028127 v -4.630211 l 4.6302,-4.630198 h 2.31511 v 2.315088 h 11.57552 v -6.945309 h -18.52083 V -0.6984438 h 25.46614 v 6.945321 h -16.20573 l -2.3151,2.315109 v 4.6302008 h 18.52083 v 20.83594 z"
       id="path80251"
       inkscape:connector-curvature="0" />
    <path
       style="display:inline;fill:none;stroke:#000000;stroke-width:0.4630208;stroke-linecap:butt;stroke-linejoin:miter;stroke-miterlimit:4;stroke-dasharray:none;stroke-opacity:1"
       d="M -180.69625,-0.6984438 V 34.028127 h 6.94531 v -9.260409 l 16.20574,9.260409 h 2.3151 v -6.945321 l -16.20572,-9.2604 16.20572,-11.5755288 v -6.945321 h -2.3151 L -173.75094,10.877096 V -0.6984438 h -6.94531"
       id="path80253"
       inkscape:connector-curvature="0" />
    <path
       style="display:inline;fill:none;stroke:#000000;stroke-width:0.4630208;stroke-linecap:butt;stroke-linejoin:miter;stroke-miterlimit:4;stroke-dasharray:none;stroke-opacity:1"
       d="m -150.44627,-0.6984438 h 4.6302 l 2.31511,2.31511 v 2.315101 l -2.31511,2.31511 v 6.9453098 h 13.89063 V 3.9317672 1.6166662 l 2.31511,-2.31511 h 4.6302 V 34.028127 h -25.46614 v -6.945321 l 2.31509,-2.315088 h 2.31511 l 2.31511,2.315088 h 11.57552 v -6.945309 h -18.52083 z"
       id="path80255"
       inkscape:connector-curvature="0" />
    <path
       style="display:inline;fill:none;stroke:#000000;stroke-width:0.4630208;stroke-linecap:butt;stroke-linejoin:miter;stroke-miterlimit:4;stroke-dasharray:none;stroke-opacity:1"
       d="M -122.81862,-0.6984438 V 34.028127 h 6.94531 v -20.83594 l 11.57552,20.83594 h 6.945309 V -0.6984438 h -6.945309 V 22.452606 l -13.89063,-23.1510498 z"
       id="path80257"
       inkscape:connector-curvature="0" />
    <path
       style="display:inline;fill:none;stroke:#000000;stroke-width:0.4630208;stroke-linecap:butt;stroke-linejoin:miter;stroke-miterlimit:4;stroke-dasharray:none;stroke-opacity:1"
       d="M -94.752031,-0.6984438 V 34.028127 h 25.46614 v -6.945321 h -18.52083 v -6.945309 h 18.52083 v -6.94531 h -18.52083 V 6.2468772 h 18.52083 v -6.945321 z"
       id="path80259"
       inkscape:connector-curvature="0" />
    <path
       style="display:inline;fill:none;stroke:#000000;stroke-width:0.4630208;stroke-linecap:butt;stroke-linejoin:miter;stroke-miterlimit:4;stroke-dasharray:none;stroke-opacity:1"
       d="m -64.903751,-0.6984438 v 6.945321 h 9.2604 V 34.028127 h 6.94532 V 6.2468772 h 9.26042 v -6.945321 z"
       id="path80261"
       inkscape:connector-curvature="0" />
    <path
       style="display:inline;opacity:1;vector-effect:none;fill:none;fill-opacity:1;stroke:#000000;stroke-width:0.4630208;stroke-linecap:square;stroke-linejoin:miter;stroke-miterlimit:4;stroke-dasharray:none;stroke-opacity:1"
       d="m -173.75094,-28.773283 h 13.89063 v 20.8359292 h -13.89063 z"
       id="path4669"
       inkscape:connector-curvature="0" />
    <path
       style="display:inline;opacity:1;vector-effect:none;fill:none;fill-opacity:1;stroke:#000000;stroke-width:0.0826823;stroke-linecap:square;stroke-linejoin:miter;stroke-miterlimit:4;stroke-dasharray:none;stroke-opacity:1"
       d="m -180.45799,-18.354823 v -17.07389 h 13.64259 13.64258 v 17.07389 17.0738992 h -13.64258 -13.64259 z m 25.25946,15.0481702 v -0.24805 l -10.31463,-0.02101 -10.31462,-0.02101 v -13.6004902 -13.60056 l 9.15707,-0.021 9.15706,-0.021 v -0.24806 -0.24805 l -9.28108,-0.021 c -8.21587,-0.0185 -9.2811,-0.007 -9.2811,0.10343 0,0.0684 -0.0558,0.12442 -0.12407,0.12442 -0.10973,0 -0.12408,1.60313 -0.12408,13.93196 0,12.3288602 0.014,13.9319812 0.12408,13.9319812 0.0683,0 0.12407,0.056 0.12407,0.124428 0,0.110072 1.1938,0.12197 10.43865,0.10342 l 10.43865,-0.02101 z m -22.94434,-15.0481702 v -15.08953 h -0.24807 -0.24804 v 15.08953 15.0895192 h 0.24804 0.24807 z m 23.15103,-1.15755 v -14.18002 h -10.54199 -10.542 v 0.28939 0.28938 h 10.29396 10.29394 v 13.60125 13.6012302 h -9.13639 -9.1364 v 0.289391 0.289377 h 9.38445 9.38443 z m -4.6302,1.15755 v -10.70735 h -7.19336 -7.19336 v 10.70735 10.7073602 h 7.19336 7.19336 z m 2.31511,0 v -10.45931 h -0.24807 -0.24804 v 10.45931 10.4593002 h 0.24804 0.24807 z"
       id="path4673"
       inkscape:connector-curvature="0" />
    <path
       style="display:inline;opacity:1;vector-effect:none;fill:none;fill-opacity:1;stroke:#000000;stroke-width:0.4630208;stroke-linecap:square;stroke-linejoin:miter;stroke-miterlimit:4;stroke-dasharray:none;stroke-opacity:1"
       d="m -88.092071,-28.773283 v 20.8359292 h 13.89062 V -28.773283 Z"
       id="path4692"
       inkscape:connector-curvature="0" />
    <path
       style="display:inline;opacity:1;vector-effect:none;fill:#002ff2;fill-opacity:1;stroke:#002ff2;stroke-width:0.05846521;stroke-linecap:square;stroke-linejoin:miter;stroke-miterlimit:4;stroke-dasharray:none;stroke-opacity:1"
       d="m -208.14787,31.635627 v -2.119649 l 2.23657,-2.236012 2.23657,-2.23601 h 0.97902 0.979 v 1.140071 1.140069 h 6.05115 6.05116 v -3.71253 -3.712538 h -9.26675 -9.26672 V 9.7260662 -0.4468718 h 12.48231 12.48233 v 3.215589 3.21559 h -8.02486 -8.02486 l -1.24188,1.24288 -1.24188,1.242891 v 2.4988678 2.498902 h 9.26674 9.26674 v 10.143718 10.143712 h -12.48233 -12.48231 z m 23.15222,-5.714691 v -6.021908 h -1.40317 -1.40316 v 4.764899 4.764921 h 0.26309 0.2631 v -4.501832 -4.501819 h 0.87697 0.87698 v 5.524981 5.524958 h -10.28987 -10.28988 v 0.233852 0.23387 h 10.55297 10.55297 z m -4.85261,3.478681 v -0.263091 h -7.78981 -7.78981 l 0.93386,-0.93522 0.93385,-0.935239 -0.18942,-0.18942 -0.18944,-0.189431 -1.34437,1.343422 c -0.73941,0.738878 -1.34438,1.363369 -1.34438,1.38775 0,0.02429 3.7754,0.0443 8.38976,0.0443 h 8.38976 z m 4.61874,-11.576111 v -0.263088 h -10.43604 -10.43603 v 0.263088 0.263102 h 10.43603 10.43604 z m 0,-2.338609 v -0.263099 h -10.28987 -10.28988 v -6.8111898 -6.81119 h -0.2631 -0.26309 v 7.074289 7.0742808 h 10.55297 10.55297 z m -18.29961,-5.7588308 v -3.50791 h -0.23385 -0.23387 v 3.50791 3.5079118 h 0.23387 0.23385 z m 1.33201,-4.602218 -0.95065,-0.951971 h 9.07606 9.07606 v -1.40316 -1.40317 h -9.41626 -9.41626 l 0.018,0.248481 0.018,0.248468 9.13518,0.01579 9.13519,0.014 v 0.87662 0.876612 l -9.13519,0.01569 -9.13518,0.01579 -0.0201,0.14613 c -0.0105,0.0803 -0.0486,0.180742 -0.0833,0.22302 -0.0488,0.0595 0.20059,0.340852 1.10018,1.241271 l 1.16333,1.164439 0.19293,-0.186989 0.19292,-0.18701 z"
       id="path4700"
       inkscape:connector-curvature="0" />
    <path
       style="display:inline;opacity:1;vector-effect:none;fill:#002ff2;fill-opacity:1;stroke:#002ff2;stroke-width:0.05846521;stroke-linecap:square;stroke-linejoin:miter;stroke-miterlimit:4;stroke-dasharray:none;stroke-opacity:1"
       d="M -180.43536,16.655487 V -0.4455838 h 3.2153 3.2153 l 0.014,5.900812 0.014,5.9008188 8.26102,-5.9008188 8.26104,-5.900812 h 0.99109 0.9911 v 3.271891 3.271901 l -8.21205,5.8632878 c -6.60217,4.713872 -8.19526,5.876052 -8.12654,5.928281 0.0471,0.0357 3.74211,2.153639 8.21135,4.70645 l 8.12588,4.641461 5.3e-4,3.259439 5.3e-4,3.259429 -1.00853,-1.9e-5 -1.00852,-2.9e-5 -8.23626,-4.706421 c -4.52994,-2.58853 -8.24616,-4.70643 -8.25822,-4.70643 -0.0122,0 -0.0219,2.1179 -0.0219,4.706451 v 4.706448 h -3.21558 -3.21559 z m 22.91568,15.075429 c 0.0691,-0.11725 0.10465,-0.231698 0.0789,-0.25428 -0.1169,-0.102198 -18.80232,-11.75172 -18.84941,-11.75172 -0.0315,0 -0.0471,2.4345 -0.0382,6.007301 l 0.014,6.007291 0.24818,0.01799 0.24816,0.01799 0.014,-5.577628 0.014,-5.577642 9.05926,5.661991 c 4.98258,3.11409 9.0645,5.66198 9.07094,5.66198 0.007,0 0.0683,-0.0959 0.13756,-0.21322 z m -20.59157,-14.91466 0.014,-14.9232378 h 0.87685 0.87688 v 5.671129 5.6711188 h 0.26309 0.26308 v -5.9342098 -5.93422 h -1.40314 -1.40316 V 16.528826 c 0,8.339082 0.0187,15.180762 0.0418,15.20372 0.0229,0.02289 0.13475,0.034 0.24848,0.02429 l 0.20671,-0.01749 z m 20.59615,12.581581 c 0.0705,-0.114279 0.11883,-0.215181 0.1071,-0.22432 -0.0123,-0.009 -4.10525,-2.566339 -9.09676,-5.68267 -4.99151,-3.116329 -9.07489,-5.679199 -9.07419,-5.695291 0.001,-0.0158 4.09126,-3.09421 9.0901,-6.840268 4.99884,-3.7460918 9.0888,-6.8257418 9.0888,-6.8436908 0,-0.01799 -0.0618,-0.11638 -0.13738,-0.218739 l -0.13737,-0.186071 -9.42437,7.0682298 -9.42434,7.06823 9.40086,5.878901 c 5.17048,3.233399 9.41845,5.87991 9.43995,5.881148 0.0215,0.0011 0.0968,-0.0912 0.16748,-0.205459 z m -9.12227,-20.6352988 c 5.08051,-3.81054 9.2373,-6.943881 9.2373,-6.96296 0,-0.0975 -0.25744,-0.37773 -0.32358,-0.352362 -0.0767,0.0294 -18.2861,13.6662208 -18.43548,13.8060718 -0.0665,0.0623 -0.0576,0.10395 0.0548,0.255929 0.0739,0.0999 0.15575,0.181599 0.18193,0.181599 0.0263,0 4.20445,-3.117728 9.28498,-6.9282778 z"
       id="path4702"
       inkscape:connector-curvature="0" />
    <path
       style="display:inline;opacity:1;vector-effect:none;fill:#002ff2;fill-opacity:1;stroke:#002ff2;stroke-width:0.05846521;stroke-linecap:square;stroke-linejoin:miter;stroke-miterlimit:4;stroke-dasharray:none;stroke-opacity:1"
       d="M -122.55481,16.654757 V -0.4470518 l 2.11647,0.01579 2.11647,0.01569 7.10642,11.8518198 c 3.90853,6.518492 7.12615,11.852701 7.15027,11.85382 0.0241,0.0011 0.0439,-5.338789 0.0439,-11.86643 V -0.4447948 h 3.21558 3.215589 v 17.1015578 17.10156 l -3.287029,-0.01569 -3.28701,-0.0158 -5.93587,-10.68116 c -3.26473,-5.87465 -5.95559,-10.700221 -5.97972,-10.723502 -0.0241,-0.02331 -0.0439,4.789821 -0.0439,10.695781 v 10.738104 h -3.21559 -3.21559 z m 19.10556,15.07322 c 0.0873,-0.0546 0.16817,-0.105701 0.17988,-0.11375 0.0123,-0.009 -3.29019,-5.751221 -7.33738,-12.762801 -5.65693,-9.8003388 -7.37882,-12.7397088 -7.44623,-12.7111288 -0.0483,0.02051 -0.16013,0.0495 -0.24863,0.0648 l -0.16082,0.0276 0.014,12.7533898 0.014,12.753369 h 0.23387 0.23385 l 0.0292,-12.242649 0.0292,-12.2426518 5.7851,10.0209718 c 3.18181,5.511538 6.3742,11.04047 7.09424,12.286509 0.72003,1.246029 1.33399,2.265511 1.36433,2.265511 0.0305,0 0.1267,-0.0446 0.21392,-0.0992 z m 1.49172,0.004 c 0.1029,-0.0523 0.19393,-0.100801 0.20226,-0.107799 0.0182,-0.0158 -16.11515,-27.6894818 -16.18958,-27.7708618 -0.0751,-0.0821 -0.47191,0.14298 -0.43262,0.24544 0.0387,0.100629 16.04727,27.5553808 16.12557,27.6551998 0.0721,0.0919 0.0698,0.092 0.29437,-0.02199 z M -120.24544,16.684512 V 1.6297312 l -0.24846,-0.01799 -0.24848,-0.01799 V 16.684491 31.775232 l 0.24848,-0.01799 0.24846,-0.01799 z m 20.828349,-0.014 0.014,-15.0694098 h -0.26324 -0.2632 V 16.646154 c 0,8.27478 0.0187,15.063838 0.0418,15.086798 0.0229,0.02289 0.13475,0.034 0.24848,0.02429 l 0.20671,-0.01749 z M -101.7412,15.925064 V 1.6011962 h -0.26297 -0.26296 l -0.014,13.3679108 -0.014,13.367901 -7.79084,-13.35328 c -4.28498,-7.3443198 -7.8135,-13.3886598 -7.84121,-13.4318818 -0.0416,-0.0649 -0.0814,-0.0625 -0.22979,0.014 -0.0987,0.0511 -0.19446,0.11707 -0.21282,0.14682 -0.0299,0.0485 16.54748,28.5363098 16.60575,28.5363098 0.014,0 0.0243,-6.4458 0.0243,-14.323981 z"
       id="path4706"
       inkscape:connector-curvature="0" />
    <path
       style="display:inline;opacity:1;vector-effect:none;fill:#002ff2;fill-opacity:1;stroke:#002ff2;stroke-width:0.05846521;stroke-linecap:square;stroke-linejoin:miter;stroke-miterlimit:4;stroke-dasharray:none;stroke-opacity:1"
       d="M -94.491511,16.654196 V -0.4468718 h 12.48233 12.48231 v 3.215589 3.21559 h -9.26674 -9.26672 v 3.741759 3.7417818 h 9.26672 9.26674 v 3.21559 3.21559 h -9.26674 -9.26672 v 3.712538 3.71253 h 9.26672 9.26674 v 3.215592 3.21559 h -12.48231 -12.48233 z m 23.15222,13.885492 v -1.403162 h -9.26674 -9.26672 v -4.50183 -4.501819 h -0.2631 -0.26309 v 4.764921 4.764918 h 9.26674 9.26672 v 0.906201 0.906219 h -9.1498 -9.14981 v 0.233852 0.23387 h 9.4129 9.4129 z m -20.82799,-5.62728 0.014,-6.8258 h 10.28963 10.28963 v -0.263102 -0.263088 h -10.55297 -10.55295 v 7.106888 7.10687 l 0.24846,-0.01799 0.24848,-0.01799 z m 20.59414,-9.427511 v -0.263099 h -10.28988 -10.28988 v -6.8111898 -6.81119 h -0.26309 -0.2631 v 7.074289 7.0742808 h 10.55298 10.55297 z m -18.29961,-6.7819698 v -4.53105 h 9.26672 9.26674 v -1.40316 -1.40317 h -9.4129 -9.4129 v 0.263089 0.263101 h 9.14981 9.1498 v 0.8768 0.87679 l -9.25211,0.01579 -9.25213,0.01569 -0.0157,4.779532 -0.014,4.7795308 h 0.26345 0.26343 z"
       id="path4708"
       inkscape:connector-curvature="0" />
    <path
       style="display:inline;opacity:1;vector-effect:none;fill:#002ff2;fill-opacity:1;stroke:#002ff2;stroke-width:0.05846521;stroke-linecap:square;stroke-linejoin:miter;stroke-miterlimit:4;stroke-dasharray:none;stroke-opacity:1"
       d="M -55.378291,19.869786 V 5.9843072 h -4.64798 -4.64799 v -3.21559 -3.215589 h 12.48233 12.48232 v 3.215589 3.21559 h -4.61874 -4.61876 V 19.869786 33.755278 h -3.21559 -3.21559 z m 4.38489,11.839202 v -0.233852 h -1.1693 -1.1693 v 0.233852 0.23387 h 1.1693 1.1693 z m 0,-2.309371 v -0.263091 h -1.1693 -1.1693 v 0.263091 0.263099 h 1.1693 1.1693 z m 0,-2.33861 v -0.263101 h -1.1693 -1.1693 v 0.263101 0.263089 h 1.1693 1.1693 z m 0,-2.28015 v -0.263091 h -1.1693 -1.1693 v 0.263091 0.263099 h 1.1693 1.1693 z m 0,-2.338609 v -0.263091 h -1.1693 -1.1693 v 0.263091 0.263099 h 1.1693 1.1693 z m -0.0105,-2.294761 0.018,-0.248459 h -1.17266 -1.17267 v 0.224099 c 0,0.123201 0.0182,0.242221 0.0402,0.264319 0.0221,0.0222 0.54171,0.0331 1.15468,0.02429 l 1.11449,-0.0158 z m 0.0105,-2.323981 v -0.263088 h -1.1693 -1.1693 v 0.263088 0.263102 h 1.1693 1.1693 z m 0,-2.338609 v -0.263099 h -1.1693 -1.1693 v 0.263099 0.263091 h 1.1693 1.1693 z m 0,-2.28015 v -0.263089 h -1.1693 -1.1693 v 0.263089 0.263101 h 1.1693 1.1693 z m 0,-2.33861 v -0.263091 h -1.1693 -1.1693 v 0.263091 0.263099 h 1.1693 1.1693 z m -0.0105,-2.2947608 0.018,-0.24848 h -1.17266 -1.17267 v 0.264342 0.26434 l 1.15468,-0.0158 1.15469,-0.01569 z m 0.0105,-2.323978 v -0.263091 h -1.1693 -1.1693 v 0.263091 0.263099 h 1.1693 1.1693 z m 9.28473,-2.324002 -0.018,-0.248478 h -10.43604 -10.43603 l -0.018,0.248478 -0.018,0.248481 h 10.47198 10.472 z m -0.018,-2.29476 v -0.233868 l -10.45067,-0.014 -10.45063,-0.014 v 0.26343 0.263411 l 10.45063,-0.014 10.45067,-0.014 z"
       id="path4710"
       inkscape:connector-curvature="0" />
    <path
       style="display:inline;opacity:1;vector-effect:none;fill:#002ff2;fill-opacity:1;stroke:#002ff2;stroke-width:0.04134114;stroke-linecap:square;stroke-linejoin:miter;stroke-miterlimit:4;stroke-dasharray:none;stroke-opacity:1"
       d="m -150.19313,30.482676 v -3.276579 l 1.08549,-1.084911 1.08549,-1.084908 h 1.05418 1.0542 l 1.15699,1.15755 1.157,1.157538 h 5.96396 5.96395 l -0.0105,-3.73104 -0.0105,-3.73103 -9.25008,-0.0105 -9.25008,-0.0105 V 9.7190992 -0.4300608 h 2.13969 2.13971 l 1.08491,1.08549 1.08492,1.085491 v 1.033518 1.033531 l -1.15756,1.156991 -1.15755,1.156999 v 3.669311 3.6692988 h 7.19335 7.19336 V 7.6001682 1.7397692 l 1.08549,-1.084919 1.08549,-1.084911 h 2.13913 2.13911 v 17.0945598 17.09456 h -12.48504 -12.48503 z m 20.58789,1.230201 v -0.268729 h -9.1364 -9.1364 v -0.961472 -0.96147 l 1.11622,-1.115639 c 0.61392,-0.61359 1.1162,-1.13524 1.1162,-1.1592 0,-0.024 -0.0747,-0.116549 -0.16625,-0.205891 l -0.16625,-0.162219 -1.19803,1.19752 -1.19805,1.19751 v 1.354179 1.354191 h 9.38444 9.38443 z m 2.56314,-15.316909 c 0,-8.4356518 -0.014,-15.3375618 -0.0308,-15.3375618 -0.0485,0 -2.69773,2.660912 -2.69773,2.709561 0,0.024 0.0747,0.116551 0.16625,0.205779 l 0.16625,0.162222 0.95002,-0.949352 0.95004,-0.949359 v 14.7481208 14.74811 h 0.24804 0.24805 z m -2.3151,7.33806 v -5.932461 h -0.24804 -0.24805 v 5.663631 5.663629 l -7.98918,0.0105 -7.98917,0.0105 -0.0122,0.201461 c -0.007,0.110768 -0.004,0.227079 0.009,0.258379 0.0186,0.0481 1.3007,0.0569 8.25002,0.0569 h 8.22819 z m -2.56315,-5.9119 v -0.268822 l -8.11319,0.0105 -8.11321,0.0105 -0.0122,0.201461 c -0.007,0.110779 -0.004,0.227079 0.009,0.25839 0.0185,0.0481 1.28201,0.0569 8.12602,0.0569 h 8.10416 z m 2.31511,-2.314991 v -0.26871 h -9.1364 -9.1364 V 8.7378582 2.2373072 l 0.95004,0.949359 0.95004,0.94936 0.16625,-0.162229 c 0.0914,-0.0893 0.16625,-0.18165 0.16625,-0.20533 0,-0.0487 -2.64885,-2.710011 -2.69727,-2.710011 -0.0175,0 -0.0313,3.311422 -0.0313,7.358711 v 7.3587398 h 9.38442 9.38445 z m 0.24804,-5.7877598 v -3.493331 h -0.24804 -0.24805 v 3.493331 3.4933198 h 0.24805 0.24804 z"
       id="path4722"
       inkscape:connector-curvature="0" />
    <path
       style="display:inline;opacity:1;vector-effect:none;fill:#002ff2;fill-opacity:1;stroke:#002ff2;stroke-width:0.04134114;stroke-linecap:square;stroke-linejoin:miter;stroke-miterlimit:4;stroke-dasharray:none;stroke-opacity:1"
       d="m -36.914551,-18.368313 v -17.11524 h 12.48503 12.48502 v 3.22462 3.2246 h -8.10287 -8.10285 v 2.49055 2.49054 l 1.22964,1.23017 1.22964,1.23014 h 6.87323 6.87321 v 0.982 0.98199 l -2.24289,2.24263 -2.2429,2.2426 h -7.01752 -7.01752 v 6.9453192 6.94531 h -3.2246 -3.22462 z m 2.31511,1.17822 v -13.91129 h -0.24804 -0.24805 v 13.91129 13.9113002 h 0.24805 0.24804 z m 2.31509,0.12408 v -13.78727 h 9.26043 9.26042 v -1.4056 -1.4056 h -10.542 -10.54198 v 0.24804 0.24805 h 10.29393 10.29396 v 0.90951 0.90949 h -9.26042 -9.26043 v 14.03533 14.0353212 h 0.24805 0.24804 z m 13.67566,-0.1344 -0.0122,-0.23772 -5.7981,-0.0105 -5.79808,-0.0105 v 0.24818 0.24821 h 5.81049 5.81049 z m 4.7625,-2.14442 c 0,-0.0257 -0.0268,-0.0691 -0.0597,-0.0964 -0.0327,-0.0273 -0.0653,-0.108501 -0.0723,-0.18076 l -0.0122,-0.13125 -7.78281,-0.0206 -7.78283,-0.0206 0.90986,-0.90914 c 0.50042,-0.50005 0.90986,-0.9288 0.90986,-0.95281 0,-0.024 -0.0749,-0.11672 -0.16625,-0.20602 l -0.16625,-0.1624 -1.16529,1.16529 -1.1653,1.16529 0.0914,0.0973 c 0.0502,0.0535 0.0914,0.14717 0.0914,0.20826 v 0.11095 h 7.80279 7.80281 l -0.94948,0.95015 -0.94946,0.95014 0.18398,0.18746 0.18399,0.18748 1.14823,-1.14767 c 0.63152,-0.63122 1.14823,-1.16879 1.14823,-1.19456 z m -16.12305,-5.94811 v -3.49333 h -0.24804 -0.24805 v 3.49333 3.49334 h 0.24805 0.24804 z"
       id="path4724"
       inkscape:connector-curvature="0" />
    <path
       style="display:inline;opacity:1;vector-effect:none;fill:#002ff2;fill-opacity:1;stroke:#002ff2;stroke-width:0.04134114;stroke-linecap:square;stroke-linejoin:miter;stroke-miterlimit:4;stroke-dasharray:none;stroke-opacity:1"
       d="m -64.695801,-18.368313 v -17.11524 h 12.48503 12.48502 v 4.38217 4.38216 h -9.2604 -9.26043 v 2.563149 2.563141 h 9.26043 9.2604 v 3.22462 3.2246 h -9.2604 -9.26043 v 6.9453192 6.94531 h -3.2246 -3.22462 z m 2.31511,1.17822 v -13.91129 h -0.24804 -0.24805 v 13.91129 13.9113002 h 0.24805 0.24804 z m 2.31509,9.2604102 v -4.6508702 h -0.24804 -0.24805 v 4.6508702 4.65089 h 0.24805 0.24804 z m 0,-7.9788302 v -1.0542 h 9.15914 9.15913 l -0.0122,-0.23772 -0.0122,-0.2377 -9.27074,-0.0105 -9.27077,-0.0105 v 0.12407 c 0,0.11043 -0.014,0.12408 -0.12407,0.12408 h -0.12408 v 1.17822 1.17822 h 0.24805 0.24805 z m 18.30586,-3.607031 -0.0122,-0.237699 -9.14672,-0.0105 -9.14673,-0.0105 v -4.506091 -4.506099 h -0.24804 -0.24805 v 4.65089 4.650869 h 0.12408 c 0.10465,0 0.12407,0.0158 0.12407,0.103431 v 0.10342 h 9.28316 9.28315 z m 0.21499,-10.304279 v -1.28156 h -0.10063 c -0.0789,0 -0.10342,-0.0243 -0.11375,-0.11375 l -0.0122,-0.11375 -9.27074,-0.0105 -9.27075,-0.0105 v 0.24813 0.24815 h 9.13638 9.1364 v 0.9095 0.90951 h -7.97884 -7.97885 v 0.24804 0.24805 h 8.22689 8.22689 z m -0.21499,-3.58634 -0.0122,-0.23771 -10.4283,-0.0105 -10.42829,-0.0105 v 0.24814 0.24811 h 10.4407 10.44071 z"
       id="path4726"
       inkscape:connector-curvature="0" />
    <path
       style="display:inline;opacity:1;vector-effect:none;fill:#002ff2;fill-opacity:1;stroke:#002ff2;stroke-width:0.04134114;stroke-linecap:square;stroke-linejoin:miter;stroke-miterlimit:4;stroke-dasharray:none;stroke-opacity:1"
       d="m -94.792141,-18.368313 v -17.11524 h 13.64258 13.64258 v 17.11524 17.1152292 h -13.64258 -13.64258 z m 25.25117,15.0585092 -0.0122,-0.23771 -10.30428,-0.0105 -10.30428,-0.0105 v -13.6423292 -13.64249 h 9.15911 9.15914 l -0.0122,-0.23772 -0.0122,-0.23771 -9.27075,-0.0105 -9.27075,-0.0105 v 0.12408 c 0,0.11025 -0.014,0.12407 -0.12407,0.12407 h -0.12408 v 13.9113 13.9112902 h 0.12408 c 0.10482,0 0.12407,0.0158 0.12407,0.103421 v 0.103428 h 10.44069 10.44071 z m -22.93608,-15.0378392 v -15.06885 h -0.24804 -0.24805 v 15.06885 15.0688502 h 0.24805 0.24804 z m 23.15105,-1.17822 v -14.13867 h -10.54198 -10.542 v 0.24804 0.24805 h 10.29393 10.29396 v 13.64258 13.6425812 h -9.1364 -9.13638 v 0.248039 0.248049 h 9.38444 9.38443 z m -4.6302,1.15755 v -10.66602 h -7.19336 -7.19336 v 10.66602 10.6660102 h 7.19336 7.19336 z m 2.31509,0.0207 v -10.43864 h -0.24805 -0.24804 v 10.43864 10.4386492 h 0.24804 0.24805 z"
       id="path4728"
       inkscape:connector-curvature="0" />
    <path
       style="display:inline;opacity:1;vector-effect:none;fill:#002ff2;fill-opacity:1;stroke:#002ff2;stroke-width:0.04134114;stroke-linecap:square;stroke-linejoin:miter;stroke-miterlimit:4;stroke-dasharray:none;stroke-opacity:1"
       d="m -122.57339,-18.368313 v -17.11524 h 3.22446 3.22448 l 0.0105,5.93071 0.0105,5.93073 7.11067,-5.9288 7.11067,-5.92881 2.139409,-0.002 2.13941,-0.002 v 3.28657 3.28655 l -6.945309,4.63033 -6.94531,4.63034 v 1.295369 1.295381 l 6.94412,4.62669 6.944119,4.6266582 0.001,3.276302 10e-4,3.276279 h -2.16008 l -2.160079,-1.8e-5 -7.06934,-4.712872 c -3.88813,-2.592078 -7.08328,-4.7128892 -7.10034,-4.7128892 -0.0175,0 -0.031,2.1207902 -0.031,4.7128892 v 4.71289 h -3.22472 -3.22462 z m 23.151029,14.0575182 v -1.445389 l -8.092529,-5.7804792 -8.09252,-5.78049 -0.0105,-1.10436 -0.0105,-1.10435 h -0.24736 -0.24738 v 1.23002 1.23004 l 8.10286,5.78749 8.102869,5.7875012 v 0.83974 c 0,0.660479 -0.0105,0.833209 -0.0516,0.809209 -0.0285,-0.01749 -3.651469,-2.600441 -8.051189,-5.74147 -4.39973,-3.1410202 -8.02277,-5.7246702 -8.05119,-5.7414502 -0.0409,-0.0242 -0.0516,0.26238 -0.0516,1.37753 v 1.40803 h 0.24805 0.24804 v -0.92876 -0.92876 l 8.07179,5.7656782 c 4.43949,3.171122 8.085789,5.765671 8.102869,5.765671 0.0175,0 0.0312,-0.65042 0.0312,-1.4454 z m -18.520829,-5.8306282 v -7.06933 h -0.24804 -0.24805 v 6.82127 6.8212892 h -0.90951 -0.90951 v -13.7665992 -13.76659 h -0.24804 -0.24805 v 14.01465 14.0146492 h 1.4056 1.4056 z m 8.76776,-15.81561 9.236309,-6.92727 0.0105,0.83545 c 0.007,0.45952 0.007,0.83941 0,0.8442 -0.007,0.005 -2.071369,1.55306 -4.589329,3.44056 l -4.57814,3.4318 0.14788,0.193709 c 0.0814,0.10657 0.16239,0.188031 0.18012,0.18112 0.0177,-0.007 2.1276,-1.58452 4.68861,-3.505759 l 4.656389,-3.49319 v -1.23004 -1.23004 h -0.119 c -0.0763,0 -0.14035,-0.0322 -0.1787,-0.09 -0.0345,-0.0518 -0.0847,-0.0798 -0.11881,-0.0661 -0.0324,0.0122 -4.114599,3.06616 -9.071399,6.78461 l -9.01235,6.76081 -0.0105,-6.8187 -0.0105,-6.8187 h -1.28137 -1.28145 v 0.24805 0.24804 h 1.03353 1.03353 v 7.06934 c 0,3.88813 0.007,7.069329 0.014,7.069329 0.007,0 4.17012,-3.117259 9.25008,-6.927249 z"
       id="path4730"
       inkscape:connector-curvature="0" />
    <path
       style="display:inline;opacity:1;vector-effect:none;fill:#002ff2;fill-opacity:1;stroke:#002ff2;stroke-width:0.04134114;stroke-linecap:square;stroke-linejoin:miter;stroke-miterlimit:4;stroke-dasharray:none;stroke-opacity:1"
       d="m -150.35464,-18.368313 v -17.11524 h 12.48502 12.48503 v 3.22462 3.2246 h -9.26042 -9.26041 v 10.66602 10.6660102 h 9.26041 9.26042 v 3.22462 3.224599 h -12.48503 -12.48502 z m 20.62095,15.0585092 -0.0122,-0.23771 -9.27075,-0.0105 -9.27073,-0.0105 v 0.24814 0.248131 h 9.28315 9.28313 z m 2.53008,-1.271239 v -1.302239 h -2.43912 -2.43913 v 0.248039 0.248049 h 2.19109 2.19107 v 1.054201 1.0542 h 0.24804 0.24805 z m -7.16028,-1.043871 -0.0122,-0.237709 -5.67407,-0.0105 -5.67407,-0.0105 v -5.6635802 -5.663581 h -0.24803 -0.24805 v 5.911781 5.9117802 h 5.9345 5.93451 z m -13.67566,-12.7227292 v -12.75374 h -0.24804 -0.24805 v 12.75374 12.7537412 h 0.24805 0.24804 z m 2.31511,-6.82129 v -5.6844 h 5.68647 5.68649 l -0.0123,-0.23772 -0.0122,-0.23771 -5.92213,-0.0105 -5.92212,-0.0105 v 5.93259 5.93259 h 0.24805 0.24804 z m 18.52083,-6.96598 v -1.28158 h -0.24805 -0.24804 v 1.03353 1.03352 h -2.19107 -2.19109 v 0.24806 0.24805 h 2.43913 2.43912 z m -2.53008,-1.27125 -0.0122,-0.23771 -9.27075,-0.0105 -9.27073,-0.0105 v 0.24814 0.24815 h 9.28315 9.28313 z"
       id="path4732"
       inkscape:connector-curvature="0" />
    <path
       style="display:inline;opacity:1;vector-effect:none;fill:#002ff2;fill-opacity:1;stroke:#002ff2;stroke-width:0.04134114;stroke-linecap:square;stroke-linejoin:miter;stroke-miterlimit:4;stroke-dasharray:none;stroke-opacity:1"
       d="m -180.40965,-18.347643 v -17.01189 h 13.58056 13.58056 v 17.01189 17.0118682 h -13.58056 -13.58056 z m 25.25943,15.0550212 v -0.303221 l -5.55005,-0.0275 c -3.05253,-0.0158 -7.69411,-0.0275 -10.31461,-0.0275 l -4.76457,-1.9e-5 v -13.5324012 -13.53242 l 4.16162,-0.0275 c 2.2889,-0.0157 6.40959,-0.0275 9.15707,-0.0275 h 4.99543 v -0.30322 -0.30322 l -4.96777,-0.0275 c -6.0944,-0.0338 -11.73276,-0.0301 -12.80311,0.009 -0.75983,0.0271 -0.80413,0.0333 -0.87479,0.12058 -0.041,0.0506 -0.0928,0.0919 -0.11515,0.0919 -0.0224,0 -0.0542,0.0325 -0.0711,0.0723 -0.0854,0.20282 -0.13073,16.97568 -0.0656,24.3294292 l 0.0306,3.462481 0.1372,0.13422 c 0.11077,0.108328 0.18181,0.138949 0.36941,0.159078 0.12774,0.014 4.83192,0.0276 10.4538,0.031 l 10.22161,0.005 z m -22.94434,-15.0550212 v -15.15154 h -0.31004 -0.31007 v 15.15154 15.1515302 h 0.31007 0.31004 z m 23.15105,-1.15756 v -14.24202 h -10.604 -10.604 v 0.3514 0.3514 h 10.29393 10.29394 v 13.53922 13.5392312 h -9.13638 -9.1364 v 0.351398 0.351401 h 9.44647 9.44644 z m -4.6302,1.15756 v -10.76938 h -7.25538 -7.25538 v 10.76938 10.7693612 h 7.25538 7.25538 z m 2.31509,0 v -10.52133 h -0.31004 -0.31007 v 10.52133 10.5213092 h 0.31006 0.31005 z"
       id="path4734"
       inkscape:connector-curvature="0" />
    <path
       style="display:inline;opacity:1;vector-effect:none;fill:#002ff2;fill-opacity:1;stroke:#002ff2;stroke-width:0.04134114;stroke-linecap:square;stroke-linejoin:miter;stroke-miterlimit:4;stroke-dasharray:none;stroke-opacity:1"
       d="m -208.23225,-18.368313 v -17.11524 l 3.2763,0.002 3.27628,0.002 5.97379,10.75748 5.97379,10.757479 0.0105,-10.75904 0.0105,-10.759029 h 3.22453 3.22453 v 17.11524 17.1152302 l -3.27628,-7.93e-4 -3.27628,-7.94e-4 -5.95315,-10.7256412 c -3.27439,-5.899122 -5.96725,-10.726392 -5.9843,-10.727252 -0.0175,-9e-4 -0.031,4.82603 -0.031,10.72645 v 10.7280302 h -3.22462 -3.2246 z m 20.45297,15.0653012 c 0.1148,-0.0674 0.1743,-0.127932 0.16065,-0.163801 -0.0122,-0.0313 -3.61367,-6.27801 -8.00368,-13.8816212 l -7.98188,-13.824749 0.0122,-0.63333 0.0122,-0.63332 7.84981,13.59864 c 4.31738,7.47925 7.85819,13.6078892 7.86847,13.6192002 0.0357,0.0394 0.40474,-0.197739 0.40017,-0.25717 -0.004,-0.0534 -16.05044,-27.8843602 -16.14876,-28.0086202 -0.0313,-0.0395 -0.0658,-0.0373 -0.15785,0.0105 -0.0648,0.0334 -0.16519,0.0609 -0.22321,0.0609 h -0.10535 v 15.06884 15.0688512 h 0.248 0.24797 l 0.0105,-13.4228112 0.0105,-13.4228 7.77213,13.46369 c 4.27468,7.4050392 7.78912,13.4639102 7.80985,13.4641512 0.0206,2.49e-4 0.1197,-0.0476 0.22012,-0.106402 z m -18.13786,-15.0446312 v -15.06885 h -0.24805 -0.24804 v 15.06885 15.0688502 h 0.24804 0.24805 z m 20.83594,0 v -15.06885 h -0.24805 -0.24804 v 15.06885 15.0688502 h 0.24804 0.24805 z m -2.31512,-2.31511 v -12.75374 h -0.24804 -0.24804 v 12.75374 12.7537502 h 0.24804 0.24804 z"
       id="path4736"
       inkscape:connector-curvature="0" />
    <path
       style="display:inline;opacity:1;vector-effect:none;fill:#002ff2;fill-opacity:1;stroke:#002ff2;stroke-width:0.04134114;stroke-linecap:square;stroke-linejoin:miter;stroke-miterlimit:4;stroke-dasharray:none;stroke-opacity:1"
       d="m -236.0135,-18.368313 v -17.11524 h 3.22461 3.22461 v 4.73357 c 0,2.60346 0.009,4.73356 0.0207,4.73356 0.0114,0 3.21585,-2.1301 7.12099,-4.73356 l 7.10027,-4.73357 h 2.13943 2.13942 l -0.002,0.98185 -0.002,0.98186 -9.32062,6.98657 c -5.12635,3.84264 -9.32063,6.99596 -9.32063,7.00741 0,0.0122 4.19509,3.69146 9.32243,8.17785 l 9.32243,8.1570302 v 0.96896 0.968939 h -2.14999 -2.14987 l -7.10021,-5.917028 -7.1002,-5.9170112 -0.0105,5.9170112 -0.0105,5.917028 h -3.22446 -3.22447 z m 20.7428,14.8749802 c -0.008,-0.02151 -15.77058,-13.5462702 -16.12696,-13.8371902 -0.0617,-0.0504 -0.0828,-0.0464 -0.16521,0.031 -0.052,0.0488 -0.14443,0.0887 -0.2055,0.0887 h -0.11102 v 6.96599 6.9659802 h 0.24793 0.24792 l 0.0105,-6.67954 0.0105,-6.6795502 7.89518,6.7673202 7.89517,6.7673 0.15589,-0.18078 c 0.0857,-0.0994 0.15129,-0.193601 0.14567,-0.20928 z m 2.31511,7.94e-4 c -0.006,-0.01579 -4.1183,-3.622035 -9.1393,-8.0150942 -5.02099,-4.39307 -9.11376,-8.00124 -9.09505,-8.01818 0.0187,-0.0175 4.13219,-3.10335 9.14105,-6.85869 l 9.10702,-6.82789 -0.13266,-0.18473 c -0.073,-0.10167 -0.15276,-0.18429 -0.17734,-0.18373 -0.0246,5.6e-4 -4.20637,3.123 -9.2929,6.93875 -9.01054,6.75945 -9.24665,6.94001 -9.18645,7.02597 0.055,0.0786 0.0546,0.0991 -0.004,0.188269 l -0.0656,0.100101 9.27142,8.11259 9.27142,8.1125802 0.15617,-0.1811 c 0.0859,-0.0996 0.15157,-0.193571 0.14595,-0.208811 z m -20.7428,-14.8551042 v -15.06885 h -0.24805 -0.24805 v 15.06885 15.0688502 h 0.24805 0.24805 z m 10.11899,-8.91359 c 4.49595,-3.20962 8.20598,-5.86574 8.24451,-5.90245 0.0655,-0.0625 0.0608,-0.0793 -0.0743,-0.26039 l -0.14431,-0.1936 -7.89619,5.6403 c -4.34291,3.102179 -7.90462,5.64031 -7.91492,5.64031 -0.0103,0 -0.0187,-2.49288 -0.0187,-5.53972 v -5.53971 h -0.24804 -0.24805 v 6.01956 c 0,5.3655 0.007,6.01694 0.0628,5.99547 0.0345,-0.014 3.74127,-2.650131 8.23722,-5.85977 z"
       id="path4738"
       inkscape:connector-curvature="0" />
    <path
       style="display:inline;fill:none;stroke:#000000;stroke-width:0.4630208px;stroke-linecap:butt;stroke-linejoin:miter;stroke-opacity:1"
       d="M -203.84728,-3.3071428 V -33.403493"
       id="path79921"
       inkscape:connector-curvature="0" />
    <path
       style="display:inline;fill:none;stroke:#000000;stroke-width:0.4630208px;stroke-linecap:butt;stroke-linejoin:miter;stroke-opacity:1"
       d="m -203.84728,-33.403493 16.20572,28.0691502"
       id="path79935"
       inkscape:connector-curvature="0" />
    <path
       style="display:inline;fill:none;stroke:#000000;stroke-width:0.4630208px;stroke-linecap:butt;stroke-linejoin:miter;stroke-opacity:1"
       d="m -203.84728,-31.088393 16.03951,27.7812502"
       id="path79941"
       inkscape:connector-curvature="0" />
    <path
       style="display:inline;fill:none;stroke:#000000;stroke-width:0.4630208px;stroke-linecap:butt;stroke-linejoin:miter;stroke-opacity:1"
       d="M -206.16239,-33.403493 V -3.3071428"
       id="path79943"
       inkscape:connector-curvature="0" />
    <path
       style="display:inline;fill:none;stroke:#000000;stroke-width:0.4630208px;stroke-linecap:butt;stroke-linejoin:miter;stroke-opacity:1"
       d="M -185.32645,-3.3071428 V -33.403493"
       id="path79945"
       inkscape:connector-curvature="0" />
    <path
       style="display:inline;fill:none;stroke:#000000;stroke-width:0.4630208px;stroke-linecap:butt;stroke-linejoin:miter;stroke-opacity:1"
       d="M -187.64156,-7.9373538 V -33.403493"
       id="path79947"
       inkscape:connector-curvature="0" />
    <path
       style="display:inline;fill:none;stroke:#000000;stroke-width:0.4630208px;stroke-linecap:butt;stroke-linejoin:miter;stroke-opacity:1"
       d="M -178.38114,-33.403493 V -3.3071428"
       id="path79949"
       inkscape:connector-curvature="0" />
    <path
       style="display:inline;fill:none;stroke:#000000;stroke-width:0.4630208px;stroke-linecap:butt;stroke-linejoin:miter;stroke-opacity:1"
       d="M -176.06603,-31.088393 V -3.3071428"
       id="path79953"
       inkscape:connector-curvature="0" />
    <path
       style="display:inline;fill:none;stroke:#000000;stroke-width:0.4630208;stroke-linecap:butt;stroke-linejoin:miter;stroke-miterlimit:4;stroke-dasharray:none;stroke-opacity:1"
       d="m -173.75094,-5.6222438 h 18.52085 V -33.403493 h -20.83594"
       id="path79959"
       inkscape:connector-curvature="0" />
    <path
       style="display:inline;fill:none;stroke:#000000;stroke-width:0.4630208px;stroke-linecap:butt;stroke-linejoin:miter;stroke-opacity:1"
       d="m -173.75094,-3.3071428 h 18.52085"
       id="path79961"
       inkscape:connector-curvature="0" />
    <path
       style="display:inline;fill:none;stroke:#000000;stroke-width:0.4630208px;stroke-linecap:butt;stroke-linejoin:miter;stroke-opacity:1"
       d="m -173.75094,-3.3071428 h -2.31509"
       id="path79963"
       inkscape:connector-curvature="0" />
    <path
       style="display:inline;fill:none;stroke:#000000;stroke-width:0.4630208px;stroke-linecap:butt;stroke-linejoin:miter;stroke-opacity:1"
       d="m -176.06603,-31.088393 h 18.52083"
       id="path79965"
       inkscape:connector-curvature="0" />
    <path
       style="display:inline;fill:none;stroke:#000000;stroke-width:0.4630208px;stroke-linecap:butt;stroke-linejoin:miter;stroke-opacity:1"
       d="M -157.5452,-28.773283 V -7.9373538"
       id="path79967"
       inkscape:connector-curvature="0" />
    <path
       style="display:inline;fill:none;stroke:#000000;stroke-width:0.4630208px;stroke-linecap:butt;stroke-linejoin:miter;stroke-opacity:1"
       d="M -148.28478,-31.088393 V -5.6222438"
       id="path79971"
       inkscape:connector-curvature="0" />
    <path
       style="display:inline;fill:none;stroke:#000000;stroke-width:0.4630208px;stroke-linecap:butt;stroke-linejoin:miter;stroke-opacity:1"
       d="m -145.96968,-17.197773 v 11.5755292 h 11.57553"
       id="path79983"
       inkscape:connector-curvature="0" />
    <path
       style="display:inline;fill:none;stroke:#000000;stroke-width:0.4630208px;stroke-linecap:butt;stroke-linejoin:miter;stroke-opacity:1"
       d="m -145.96968,-19.512863 v -11.57553 h 11.57553"
       id="path79985"
       inkscape:connector-curvature="0" />
    <path
       style="display:inline;fill:none;stroke:#000000;stroke-width:0.4630208px;stroke-linecap:butt;stroke-linejoin:miter;stroke-opacity:1"
       d="m -132.07906,-5.6222438 h 4.63022 v 2.315101"
       id="path79987"
       inkscape:connector-curvature="0" />
    <path
       style="display:inline;fill:none;stroke:#000000;stroke-width:0.4630208px;stroke-linecap:butt;stroke-linejoin:miter;stroke-opacity:1"
       d="m -132.07906,-31.088393 h 4.63022 v -2.3151"
       id="path79989"
       inkscape:connector-curvature="0" />
    <path
       style="display:inline;fill:none;stroke:#000000;stroke-width:0.4630208px;stroke-linecap:butt;stroke-linejoin:miter;stroke-opacity:1"
       d="m -148.28478,-33.403493 h 18.52083"
       id="path79991"
       inkscape:connector-curvature="0" />
    <path
       style="display:inline;fill:none;stroke:#000000;stroke-width:0.4630208px;stroke-linecap:butt;stroke-linejoin:miter;stroke-opacity:1"
       d="m -129.76395,-3.3071428 h -18.52083"
       id="path79993"
       inkscape:connector-curvature="0" />
    <path
       style="display:inline;fill:none;stroke:#000000;stroke-width:0.4630208px;stroke-linecap:butt;stroke-linejoin:miter;stroke-opacity:1"
       d="M -92.722281,-33.403493 V -3.3071428"
       id="path79949-6"
       inkscape:connector-curvature="0" />
    <path
       style="display:inline;fill:none;stroke:#000000;stroke-width:0.4630208px;stroke-linecap:butt;stroke-linejoin:miter;stroke-opacity:1"
       d="M -90.407181,-31.088393 V -3.3071428"
       id="path79953-8"
       inkscape:connector-curvature="0" />
    <path
       style="display:inline;fill:none;stroke:#000000;stroke-width:0.4630208px;stroke-linecap:butt;stroke-linejoin:miter;stroke-opacity:1"
       d="m -88.092071,-5.6222438 h 18.52084 V -33.403493 h -20.83595"
       id="path79959-6"
       inkscape:connector-curvature="0" />
    <path
       style="display:inline;fill:none;stroke:#000000;stroke-width:0.4630208px;stroke-linecap:butt;stroke-linejoin:miter;stroke-opacity:1"
       d="m -88.092071,-3.3071428 h 18.52084"
       id="path79961-9"
       inkscape:connector-curvature="0" />
    <path
       style="display:inline;fill:none;stroke:#000000;stroke-width:0.4630208px;stroke-linecap:butt;stroke-linejoin:miter;stroke-opacity:1"
       d="m -88.092071,-3.3071428 h -2.31511"
       id="path79963-5"
       inkscape:connector-curvature="0" />
    <path
       style="display:inline;fill:none;stroke:#000000;stroke-width:0.4630208px;stroke-linecap:butt;stroke-linejoin:miter;stroke-opacity:1"
       d="m -90.407181,-31.088393 h 18.52084"
       id="path79965-3"
       inkscape:connector-curvature="0" />
    <path
       style="display:inline;fill:none;stroke:#000000;stroke-width:0.4630208px;stroke-linecap:butt;stroke-linejoin:miter;stroke-opacity:1"
       d="M -71.886341,-28.773283 V -7.9373538"
       id="path79967-9"
       inkscape:connector-curvature="0" />
    <path
       style="display:inline;fill:none;stroke:#000000;stroke-width:0.4630208px;stroke-linecap:butt;stroke-linejoin:miter;stroke-opacity:1"
       d="m -62.625931,-33.403493 h 20.83593"
       id="path80054"
       inkscape:connector-curvature="0" />
    <path
       style="display:inline;fill:none;stroke:#000000;stroke-width:0.4630208px;stroke-linecap:butt;stroke-linejoin:miter;stroke-opacity:1"
       d="M -62.625931,-31.088393 V -3.3071428"
       id="path80056"
       inkscape:connector-curvature="0" />
    <path
       style="display:inline;fill:none;stroke:#000000;stroke-width:0.4630208px;stroke-linecap:butt;stroke-linejoin:miter;stroke-opacity:1"
       d="m -60.310821,-31.088393 h 18.52082"
       id="path80058"
       inkscape:connector-curvature="0" />
    <path
       style="display:inline;fill:none;stroke:#000000;stroke-width:0.4630208px;stroke-linecap:butt;stroke-linejoin:miter;stroke-opacity:1"
       d="m -60.310821,-19.512863 h 18.52082"
       id="path80060"
       inkscape:connector-curvature="0" />
    <path
       style="display:inline;fill:none;stroke:#000000;stroke-width:0.4630208px;stroke-linecap:butt;stroke-linejoin:miter;stroke-opacity:1"
       d="m -60.310821,-17.197773 h 18.52082"
       id="path80062"
       inkscape:connector-curvature="0" />
    <path
       style="display:inline;fill:none;stroke:#000000;stroke-width:0.4630208px;stroke-linecap:butt;stroke-linejoin:miter;stroke-opacity:1"
       d="M -60.310821,-3.3071428 V -12.567553"
       id="path80064"
       inkscape:connector-curvature="0" />
    <path
       style="display:inline;fill:none;stroke:#000000;stroke-width:0.4630208px;stroke-linecap:butt;stroke-linejoin:miter;stroke-opacity:1"
       d="m -60.310821,-19.512863 v -9.26042"
       id="path80068"
       inkscape:connector-curvature="0" />
    <path
       style="display:inline;fill:none;stroke:#000000;stroke-width:0.4630208px;stroke-linecap:butt;stroke-linejoin:miter;stroke-opacity:1"
       d="m -41.790001,-31.088393 v 2.31511 h -16.20573"
       id="path80070"
       inkscape:connector-curvature="0" />
    <path
       style="display:inline;fill:none;stroke:#000000;stroke-width:0.4630208px;stroke-linecap:butt;stroke-linejoin:miter;stroke-opacity:1"
       d="m -60.310821,-17.197773 v 2.31511"
       id="path80074"
       inkscape:connector-curvature="0" />
    <path
       style="display:inline;fill:none;stroke:#000000;stroke-width:0.4630208px;stroke-linecap:butt;stroke-linejoin:miter;stroke-opacity:1"
       d="m -34.844681,-33.403493 h 20.83593 v 2.3151 h -18.52082 v 27.7812502"
       id="path80076"
       inkscape:connector-curvature="0" />
    <path
       style="display:inline;fill:none;stroke:#000000;stroke-width:0.4630208px;stroke-linecap:butt;stroke-linejoin:miter;stroke-opacity:1"
       d="m -30.214461,-19.512863 h 16.20571"
       id="path80078"
       inkscape:connector-curvature="0" />
    <path
       style="display:inline;fill:none;stroke:#000000;stroke-width:0.4630208px;stroke-linecap:butt;stroke-linejoin:miter;stroke-opacity:1"
       d="m -14.008751,-19.512863 -2.31509,2.31509"
       id="path80080"
       inkscape:connector-curvature="0" />
    <path
       style="display:inline;fill:none;stroke:#000000;stroke-width:0.4630208px;stroke-linecap:butt;stroke-linejoin:miter;stroke-opacity:1"
       d="m -30.214461,-19.512863 2.31509,-2.315111"
       id="path80084"
       inkscape:connector-curvature="0" />
    <path
       style="display:inline;fill:none;stroke:#000000;stroke-width:0.4630208px;stroke-linecap:butt;stroke-linejoin:miter;stroke-opacity:1"
       d="m -30.214461,-21.827974 v -6.945309"
       id="path80086"
       inkscape:connector-curvature="0" />
    <path
       style="display:inline;fill:none;stroke:#000000;stroke-width:0.4630208px;stroke-linecap:butt;stroke-linejoin:miter;stroke-opacity:1"
       d="m -18.638951,-17.197773 h -11.57551"
       id="path80088"
       inkscape:connector-curvature="0" />
    <path
       style="display:inline;fill:none;stroke:#000000;stroke-width:0.4630208px;stroke-linecap:butt;stroke-linejoin:miter;stroke-opacity:1"
       d="M -34.844681,-31.088393 V -3.3071428"
       id="path80090"
       inkscape:connector-curvature="0" />
    <path
       style="display:inline;fill:none;stroke:#000000;stroke-width:0.4630208px;stroke-linecap:butt;stroke-linejoin:miter;stroke-opacity:1"
       d="M -206.08175,1.6166662 V 15.507296 h 20.83594"
       id="path80092"
       inkscape:connector-curvature="0" />
    <path
       style="display:inline;fill:none;stroke:#000000;stroke-width:0.4630208px;stroke-linecap:butt;stroke-linejoin:miter;stroke-opacity:1"
       d="m -203.76666,3.9317672 h 18.52085 v -2.315101 h -18.52085"
       id="path80094"
       inkscape:connector-curvature="0" />
    <path
       style="display:inline;fill:none;stroke:#000000;stroke-width:0.4630208px;stroke-linecap:butt;stroke-linejoin:miter;stroke-opacity:1"
       d="m -203.76666,3.9317672 2.31511,2.31511"
       id="path80096"
       inkscape:connector-curvature="0" />
    <path
       style="display:inline;fill:none;stroke:#000000;stroke-width:0.4630208px;stroke-linecap:butt;stroke-linejoin:miter;stroke-opacity:1"
       d="M -203.76666,6.2468772 V 13.192187"
       id="path80098"
       inkscape:connector-curvature="0" />
    <path
       style="display:inline;fill:none;stroke:#000000;stroke-width:0.4630208px;stroke-linecap:butt;stroke-linejoin:miter;stroke-opacity:1"
       d="m -185.24581,17.822387 h -20.83594"
       id="path80100"
       inkscape:connector-curvature="0" />
    <path
       style="display:inline;fill:none;stroke:#000000;stroke-width:0.4630208px;stroke-linecap:butt;stroke-linejoin:miter;stroke-opacity:1"
       d="m -187.56092,29.397916 v -9.260419 h 2.31511 v 11.57552 h -20.83594"
       id="path80102"
       inkscape:connector-curvature="0" />
    <path
       style="display:inline;fill:none;stroke:#000000;stroke-width:0.4630208px;stroke-linecap:butt;stroke-linejoin:miter;stroke-opacity:1"
       d="m -189.87603,29.397916 h -16.20572 l 2.31509,-2.31511"
       id="path80104"
       inkscape:connector-curvature="0" />
    <path
       style="display:inline;fill:none;stroke:#000000;stroke-width:0.4630208px;stroke-linecap:butt;stroke-linejoin:miter;stroke-opacity:1"
       d="M -178.38114,31.713017 V 1.6166662 h 2.3151 V 13.192187"
       id="path80106"
       inkscape:connector-curvature="0" />
    <path
       style="display:inline;fill:none;stroke:#000000;stroke-width:0.4630208px;stroke-linecap:butt;stroke-linejoin:miter;stroke-opacity:1"
       d="M -176.06604,15.507296 -157.5452,1.6166662"
       id="path80110"
       inkscape:connector-curvature="0" />
    <path
       style="display:inline;fill:none;stroke:#000000;stroke-width:0.4630208px;stroke-linecap:butt;stroke-linejoin:miter;stroke-opacity:1"
       d="m -157.5452,3.9317672 -18.52084,13.8906198 18.52084,11.575529"
       id="path80112"
       inkscape:connector-curvature="0" />
    <path
       style="display:inline;fill:none;stroke:#000000;stroke-width:0.4630208px;stroke-linecap:butt;stroke-linejoin:miter;stroke-opacity:1"
       d="m -157.5452,31.713017 -18.52084,-11.57552 v 11.57552"
       id="path80114"
       inkscape:connector-curvature="0" />
    <path
       style="display:inline;fill:none;stroke:#000000;stroke-width:0.4630208px;stroke-linecap:butt;stroke-linejoin:miter;stroke-opacity:1"
       d="m -129.61035,15.507296 h -18.52083 V 1.6166662 l 2.31511,2.315101"
       id="path80116"
       inkscape:connector-curvature="0" />
    <path
       style="display:inline;fill:none;stroke:#000000;stroke-width:0.4630208px;stroke-linecap:butt;stroke-linejoin:miter;stroke-opacity:1"
       d="m -129.61035,3.9317672 2.31511,-2.315101 V 31.713017"
       id="path80118"
       inkscape:connector-curvature="0" />
    <path
       style="display:inline;fill:none;stroke:#000000;stroke-width:0.4630208px;stroke-linecap:butt;stroke-linejoin:miter;stroke-opacity:1"
       d="m -129.61035,31.713017 h -18.52083 v -2.315101 l 2.3151,-2.31511"
       id="path80120"
       inkscape:connector-curvature="0" />
    <path
       style="display:inline;fill:none;stroke:#000000;stroke-width:0.4630208px;stroke-linecap:butt;stroke-linejoin:miter;stroke-opacity:1"
       d="m -145.81608,29.397916 h 16.20573 V 17.822387"
       id="path80122"
       inkscape:connector-curvature="0" />
    <path
       style="display:inline;fill:none;stroke:#000000;stroke-width:0.4630208px;stroke-linecap:butt;stroke-linejoin:miter;stroke-opacity:1"
       d="M -129.61035,6.2468772 V 13.192187"
       id="path80124"
       inkscape:connector-curvature="0" />
    <path
       style="display:inline;fill:none;stroke:#000000;stroke-width:0.4630208px;stroke-linecap:butt;stroke-linejoin:miter;stroke-opacity:1"
       d="m -148.13118,17.822387 h 16.20572"
       id="path80126"
       inkscape:connector-curvature="0" />
    <path
       style="display:inline;fill:none;stroke:#000000;stroke-width:0.4630208px;stroke-linecap:butt;stroke-linejoin:miter;stroke-opacity:1"
       d="M -120.50351,1.6166662 V 31.713017"
       id="path80130"
       inkscape:connector-curvature="0" />
    <path
       style="display:inline;fill:none;stroke:#000000;stroke-width:0.4630208px;stroke-linecap:butt;stroke-linejoin:miter;stroke-opacity:1"
       d="M -118.18843,3.9317672 -101.9827,31.713017"
       id="path80132"
       inkscape:connector-curvature="0" />
    <path
       style="display:inline;fill:none;stroke:#000000;stroke-width:0.4630208px;stroke-linecap:butt;stroke-linejoin:miter;stroke-opacity:1"
       d="M -99.667571,31.713017 V 1.6166662"
       id="path80134"
       inkscape:connector-curvature="0" />
    <path
       style="display:inline;fill:none;stroke:#000000;stroke-width:0.4630208px;stroke-linecap:butt;stroke-linejoin:miter;stroke-opacity:1"
       d="M -101.9827,1.6166662 V 29.397916 L -118.18843,1.6166662"
       id="path80136"
       inkscape:connector-curvature="0" />
    <path
       style="display:inline;fill:none;stroke:#000000;stroke-width:0.4630208px;stroke-linecap:butt;stroke-linejoin:miter;stroke-opacity:1"
       d="m -118.18843,6.2468772 14.70288,25.4661398"
       id="path80138"
       inkscape:connector-curvature="0" />
    <path
       style="display:inline;fill:none;stroke:#000000;stroke-width:0.4630208px;stroke-linecap:butt;stroke-linejoin:miter;stroke-opacity:1"
       d="M -118.18843,6.2468772 V 31.713017"
       id="path80140"
       inkscape:connector-curvature="0" />
    <path
       style="display:inline;fill:none;stroke:#000000;stroke-width:0.4630208px;stroke-linecap:butt;stroke-linejoin:miter;stroke-opacity:1"
       d="M -92.436941,1.6166662 V 15.507296 h 20.83594"
       id="path80142"
       inkscape:connector-curvature="0" />
    <path
       style="display:inline;fill:none;stroke:#000000;stroke-width:0.4630208px;stroke-linecap:butt;stroke-linejoin:miter;stroke-opacity:1"
       d="m -71.601001,17.822387 h -20.83594 v 13.89063"
       id="path80144"
       inkscape:connector-curvature="0" />
    <path
       style="display:inline;fill:none;stroke:#000000;stroke-width:0.4630208px;stroke-linecap:butt;stroke-linejoin:miter;stroke-opacity:1"
       d="m -90.121851,1.6166662 h 18.52085 v 2.315101 h -18.52085 v 9.2604198"
       id="path80146"
       inkscape:connector-curvature="0" />
    <path
       style="display:inline;fill:none;stroke:#000000;stroke-width:0.4630208px;stroke-linecap:butt;stroke-linejoin:miter;stroke-opacity:1"
       d="m -90.121851,20.137497 v 9.260419 h 18.52085 v 2.315101 h -18.52085"
       id="path80148"
       inkscape:connector-curvature="0" />
    <path
       style="display:inline;fill:none;stroke:#000000;stroke-width:0.4630208px;stroke-linecap:butt;stroke-linejoin:miter;stroke-opacity:1"
       d="m -62.588641,3.9317672 h 20.83594"
       id="path80150"
       inkscape:connector-curvature="0" />
    <path
       style="display:inline;fill:none;stroke:#000000;stroke-width:0.4630208px;stroke-linecap:butt;stroke-linejoin:miter;stroke-opacity:1"
       d="m -62.588641,1.6166662 h 20.83594"
       id="path80152"
       inkscape:connector-curvature="0" />
    <path
       style="display:inline;fill:none;stroke:#000000;stroke-width:0.4630208px;stroke-linecap:butt;stroke-linejoin:miter;stroke-opacity:1"
       d="m -53.328241,6.2468772 h 2.31511"
       id="path80154"
       inkscape:connector-curvature="0" />
    <path
       style="display:inline;fill:none;stroke:#000000;stroke-width:0.4630208px;stroke-linecap:butt;stroke-linejoin:miter;stroke-opacity:1"
       d="m -53.328241,8.5619862 h 2.31511"
       id="path80156"
       inkscape:connector-curvature="0" />
    <path
       style="display:inline;fill:none;stroke:#000000;stroke-width:0.4630208px;stroke-linecap:butt;stroke-linejoin:miter;stroke-opacity:1"
       d="m -53.328241,10.877077 h 2.31511"
       id="path80160"
       inkscape:connector-curvature="0" />
    <path
       style="display:inline;fill:none;stroke:#000000;stroke-width:0.4630208px;stroke-linecap:butt;stroke-linejoin:miter;stroke-opacity:1"
       d="m -53.328241,13.192187 h 2.31511"
       id="path80162"
       inkscape:connector-curvature="0" />
    <path
       style="display:inline;fill:none;stroke:#000000;stroke-width:0.4630208px;stroke-linecap:butt;stroke-linejoin:miter;stroke-opacity:1"
       d="m -53.328241,15.507296 h 2.31511"
       id="path80164"
       inkscape:connector-curvature="0" />
    <path
       style="display:inline;fill:none;stroke:#000000;stroke-width:0.4630208px;stroke-linecap:butt;stroke-linejoin:miter;stroke-opacity:1"
       d="m -53.328241,17.822387 h 2.31511"
       id="path80166"
       inkscape:connector-curvature="0" />
    <path
       style="display:inline;fill:none;stroke:#000000;stroke-width:0.4630208px;stroke-linecap:butt;stroke-linejoin:miter;stroke-opacity:1"
       d="m -53.328241,20.137497 h 2.31511"
       id="path80168"
       inkscape:connector-curvature="0" />
    <path
       style="display:inline;fill:none;stroke:#000000;stroke-width:0.4630208px;stroke-linecap:butt;stroke-linejoin:miter;stroke-opacity:1"
       d="m -53.328241,22.452606 h 2.31511"
       id="path80170"
       inkscape:connector-curvature="0" />
    <path
       style="display:inline;fill:none;stroke:#000000;stroke-width:0.4630208px;stroke-linecap:butt;stroke-linejoin:miter;stroke-opacity:1"
       d="m -53.328241,24.767697 h 2.31511"
       id="path80172"
       inkscape:connector-curvature="0" />
    <path
       style="display:inline;fill:none;stroke:#000000;stroke-width:0.4630208px;stroke-linecap:butt;stroke-linejoin:miter;stroke-opacity:1"
       d="m -53.328241,27.082806 h 2.31511"
       id="path80174"
       inkscape:connector-curvature="0" />
    <path
       style="display:inline;fill:none;stroke:#000000;stroke-width:0.4630208px;stroke-linecap:butt;stroke-linejoin:miter;stroke-opacity:1"
       d="m -53.328241,29.397916 h 2.31511"
       id="path80176"
       inkscape:connector-curvature="0" />
    <path
       style="display:inline;fill:none;stroke:#000000;stroke-width:0.4630208px;stroke-linecap:butt;stroke-linejoin:miter;stroke-opacity:1"
       d="m -51.013131,31.713017 h -2.31511"
       id="path80178"
       inkscape:connector-curvature="0" />
    <path
       style="display:inline;fill:none;stroke:#000000;stroke-width:0.4630208px;stroke-linecap:butt;stroke-linejoin:miter;stroke-opacity:1"
       d="m -120.50353,-33.403493 h 2.3151 v 13.89063 l 18.520839,-13.89063"
       id="path80180"
       inkscape:connector-curvature="0" />
    <path
       style="display:inline;fill:none;stroke:#000000;stroke-width:0.4630208px;stroke-linecap:butt;stroke-linejoin:miter;stroke-opacity:1"
       d="m -120.50353,-31.088393 v 27.7812502 h 2.3151 V -17.197773"
       id="path80182"
       inkscape:connector-curvature="0" />
    <path
       style="display:inline;fill:none;stroke:#000000;stroke-width:0.4630208px;stroke-linecap:butt;stroke-linejoin:miter;stroke-opacity:1"
       d="m -115.87332,-19.512863 v 2.31509 l 16.205729,11.5755292 v 2.315101 L -115.87332,-14.882663 v 2.31511"
       id="path80184"
       inkscape:connector-curvature="0" />
    <path
       style="display:inline;fill:none;stroke:#000000;stroke-width:0.4630208px;stroke-linecap:butt;stroke-linejoin:miter;stroke-opacity:1"
       d="m -99.667591,-33.403493 v 2.3151 0 l -9.260419,6.945309"
       id="path80186"
       inkscape:connector-curvature="0" />
    <path
       style="display:inline;fill:none;stroke:#000000;stroke-width:0.4630208px;stroke-linecap:butt;stroke-linejoin:miter;stroke-opacity:1"
       d="m -213.1077,-33.403493 -18.52083,13.89063"
       id="path80188"
       inkscape:connector-curvature="0" />
    <path
       style="display:inline;fill:none;stroke:#000000;stroke-width:0.4630208px;stroke-linecap:butt;stroke-linejoin:miter;stroke-opacity:1"
       d="M -233.94364,-33.403493 V -3.3071428"
       id="path80190"
       inkscape:connector-curvature="0" />
    <path
       style="display:inline;fill:none;stroke:#000000;stroke-width:0.4630208px;stroke-linecap:butt;stroke-linejoin:miter;stroke-opacity:1"
       d="m -231.62853,-19.512863 18.52083,16.2057202"
       id="path80192"
       inkscape:connector-curvature="0" />
    <path
       style="display:inline;fill:none;stroke:#000000;stroke-width:0.4630208px;stroke-linecap:butt;stroke-linejoin:miter;stroke-opacity:1"
       d="M -231.62853,-17.197773 V -3.3071428"
       id="path80194"
       inkscape:connector-curvature="0" />
    <path
       style="display:inline;fill:none;stroke:#000000;stroke-width:0.4630208px;stroke-linecap:butt;stroke-linejoin:miter;stroke-opacity:1"
       d="m -231.62853,-17.197773 16.20573,13.8906302"
       id="path80196"
       inkscape:connector-curvature="0" />
    <path
       style="display:inline;fill:none;stroke:#000000;stroke-width:0.4630208px;stroke-linecap:butt;stroke-linejoin:miter;stroke-opacity:1"
       d="m -215.4228,-33.403493 -16.20573,11.575519 v -11.575519"
       id="path80198"
       inkscape:connector-curvature="0" />
  </g>
</svg>
